<svg version="1.1" id="Layer_1" xmlns="http://www.w3.org/2000/svg" xmlns:xlink="http://www.w3.org/1999/xlink" x="0px" y="0px"
	 width="100%" viewBox="0 0 244 248" enable-background="new 0 0 244 248" xml:space="preserve">
<path fill="#FEFEFE" opacity="1.000000" stroke="none" 
	d="
M245.000000,7.000000 
	C245.000000,87.618156 245.000000,168.236313 245.000000,248.927246 
	C163.764145,248.927246 82.528198,248.927246 1.000000,248.927246 
	C1.000000,168.646011 1.000000,88.291664 1.468657,7.468672 
	C28.995081,7.000038 56.052872,6.983875 83.110565,7.028937 
	C85.422913,7.032789 88.392723,6.080606 88.660156,10.001819 
	C83.219681,12.069151 77.949112,13.622885 73.036873,15.937206 
	C20.959009,40.472855 -5.430224,96.144325 5.805894,150.421051 
	C19.137047,214.817978 86.716171,257.461456 150.774445,241.683960 
	C208.800339,227.392227 248.266968,172.598572 242.162064,113.516281 
	C238.965988,82.585197 225.851654,56.768570 203.007462,35.822269 
	C189.693878,23.614807 174.032745,15.501655 157.067978,9.459742 
	C159.147583,8.385435 161.160004,7.099527 163.178665,7.089644 
	C190.451935,6.956125 217.726074,7.000016 245.000000,7.000000 
z"/>
<path fill="#FBFBFB" opacity="1.000000" stroke="none" 
	d="
M88.996414,9.841341 
	C88.392723,6.080606 85.422913,7.032789 83.110565,7.028937 
	C56.052872,6.983875 28.995081,7.000038 1.468657,7.000015 
	C1.000000,5.003906 1.000000,3.007811 1.000000,1.008788 
	C82.333336,1.005858 163.666672,1.005858 245.000000,1.008338 
	C245.000000,2.674230 245.000000,4.337644 245.000000,6.500528 
	C217.726074,7.000016 190.451935,6.956125 163.178665,7.089644 
	C161.160004,7.099527 159.147583,8.385435 156.676697,9.495179 
	C142.019165,6.084919 127.649002,3.735424 112.917702,5.791171 
	C104.911453,6.908438 96.968124,8.476571 88.996414,9.841341 
z"/>
<path fill="#191A1B" opacity="1.000000" stroke="none" 
	d="
M88.660156,10.001818 
	C96.968124,8.476571 104.911453,6.908438 112.917702,5.791171 
	C127.649002,3.735424 142.019165,6.084919 156.612411,9.876791 
	C174.032745,15.501655 189.693878,23.614807 203.007462,35.822269 
	C225.851654,56.768570 238.965988,82.585197 242.162064,113.516281 
	C248.266968,172.598572 208.800339,227.392227 150.774445,241.683960 
	C86.716171,257.461456 19.137047,214.817978 5.805894,150.421051 
	C-5.430224,96.144325 20.959009,40.472855 73.036873,15.937206 
	C77.949112,13.622885 83.219681,12.069151 88.660156,10.001818 
M170.983765,139.944061 
	C170.911819,141.316086 170.839874,142.688126 170.720276,144.968704 
	C159.404297,128.742996 148.673721,113.368561 137.957016,97.984451 
	C133.628937,91.771385 132.877823,91.488091 125.340973,93.474648 
	C125.340973,115.874374 125.340973,138.274109 125.340973,160.789200 
	C128.374924,160.789200 131.132019,160.789200 134.379288,160.789200 
	C134.379288,143.889359 134.379288,127.195023 134.379288,109.177811 
	C136.146484,111.487946 137.141907,112.695236 138.036560,113.973091 
	C147.756790,127.856956 157.753845,141.560684 167.019653,155.742004 
	C170.512253,161.087433 174.437119,161.858444 179.771698,160.558212 
	C179.771698,137.962158 179.771698,115.542625 179.771698,92.951111 
	C176.811447,92.951111 174.086243,92.951111 170.983948,92.951111 
	C170.983948,108.494064 170.983948,123.781784 170.983765,139.944061 
M64.933647,107.399529 
	C62.912228,117.501511 68.233986,125.531921 79.421806,128.857193 
	C84.808144,130.458145 90.388405,131.418259 95.749084,133.090866 
	C101.694191,134.945816 104.314621,138.467026 104.141670,143.351624 
	C103.986755,147.726913 100.722755,151.335571 95.421211,152.992874 
	C84.845230,156.299042 76.459175,152.704163 71.423424,142.880096 
	C68.567513,142.880096 65.833870,142.880096 62.898033,142.880096 
	C63.277069,149.714874 66.178802,154.671906 71.561523,158.073242 
	C80.296654,163.592941 89.703003,163.850052 99.325996,161.018890 
	C108.523354,158.312973 113.815208,151.303650 113.982292,141.978012 
	C114.135826,133.408890 109.426804,127.340607 100.008553,124.271873 
	C97.027954,123.300720 93.877274,122.862053 90.867256,121.968155 
	C86.764366,120.749702 82.452133,119.840027 78.717682,117.871933 
	C73.402184,115.070610 72.488693,109.277023 75.966583,104.756393 
	C81.513771,97.546051 97.184044,98.365646 101.853210,106.110329 
	C105.015656,111.355835 106.632141,111.913506 112.593620,109.815590 
	C112.573616,100.244980 104.191719,93.308632 94.172173,91.451164 
	C80.314041,88.882095 68.101280,95.154350 64.933647,107.399529 
z"/>
<path fill="#FCFCFC" opacity="1.000000" stroke="none" 
	d="
M170.983856,139.506775 
	C170.983948,123.781784 170.983948,108.494064 170.983948,92.951111 
	C174.086243,92.951111 176.811447,92.951111 179.771698,92.951111 
	C179.771698,115.542625 179.771698,137.962158 179.771698,160.558212 
	C174.437119,161.858444 170.512253,161.087433 167.019653,155.742004 
	C157.753845,141.560684 147.756790,127.856956 138.036560,113.973091 
	C137.141907,112.695236 136.146484,111.487946 134.379288,109.177811 
	C134.379288,127.195023 134.379288,143.889359 134.379288,160.789200 
	C131.132019,160.789200 128.374924,160.789200 125.340973,160.789200 
	C125.340973,138.274109 125.340973,115.874374 125.341248,93.474091 
	C132.877823,91.488091 133.628937,91.771385 137.957016,97.984451 
	C148.673721,113.368561 159.404297,128.742996 170.720276,144.968704 
	C170.839874,142.688126 170.911819,141.316086 170.983856,139.506775 
z"/>
<path fill="#F9F9F9" opacity="1.000000" stroke="none" 
	d="
M64.958527,106.998062 
	C68.101280,95.154350 80.314041,88.882095 94.172173,91.451164 
	C104.191719,93.308632 112.573616,100.244980 112.593620,109.815590 
	C106.632141,111.913506 105.015656,111.355835 101.853210,106.110329 
	C97.184044,98.365646 81.513771,97.546051 75.966583,104.756393 
	C72.488693,109.277023 73.402184,115.070610 78.717682,117.871933 
	C82.452133,119.840027 86.764366,120.749702 90.867256,121.968155 
	C93.877274,122.862053 97.027954,123.300720 100.008553,124.271873 
	C109.426804,127.340607 114.135826,133.408890 113.982292,141.978012 
	C113.815208,151.303650 108.523354,158.312973 99.325996,161.018890 
	C89.703003,163.850052 80.296654,163.592941 71.561523,158.073242 
	C66.178802,154.671906 63.277069,149.714874 62.898033,142.880096 
	C65.833870,142.880096 68.567513,142.880096 71.423424,142.880096 
	C76.459175,152.704163 84.845230,156.299042 95.421211,152.992874 
	C100.722755,151.335571 103.986755,147.726913 104.141670,143.351624 
	C104.314621,138.467026 101.694191,134.945816 95.749084,133.090866 
	C90.388405,131.418259 84.808144,130.458145 79.421806,128.857193 
	C68.233986,125.531921 62.912228,117.501511 64.958527,106.998062 
z"/>
</svg>