<svg version="1.1" id="Layer_1" xmlns="http://www.w3.org/2000/svg" xmlns:xlink="http://www.w3.org/1999/xlink" x="0px" y="0px"
	 width="100%" viewBox="0 0 232 231" enable-background="new 0 0 232 231" xml:space="preserve">
<path fill="#18191A" opacity="1.000000" stroke="none" 
	d="
M233.000000,95.000000 
	C233.000000,109.020897 233.000000,123.041786 232.632629,137.610535 
	C231.826828,139.149948 231.213425,140.101379 230.975510,141.138885 
	C224.734497,168.355515 210.616089,190.567749 188.713577,207.860748 
	C175.487518,218.303268 160.707306,225.456238 144.248352,229.195587 
	C142.382797,229.619431 140.743958,231.041046 139.000000,232.000000 
	C124.645775,232.000000 110.291542,232.000000 95.394119,231.637695 
	C92.748421,230.495697 90.699646,229.492828 88.534912,228.971573 
	C71.115677,224.777023 55.478428,216.888336 41.942734,205.299652 
	C21.809938,188.062805 8.418360,166.561157 2.927829,140.396896 
	C2.740132,139.502472 1.662715,138.794754 1.000001,138.000000 
	C1.000000,123.979103 1.000000,109.958214 1.367374,95.389465 
	C2.173186,93.850067 2.786595,92.898659 3.024516,91.861137 
	C9.265759,64.644630 23.383856,42.432163 45.286457,25.139208 
	C58.512493,14.696741 73.292679,7.543690 89.751663,3.804404 
	C91.617195,3.380576 93.256042,1.958949 95.000000,1.000001 
	C109.354225,1.000000 123.708458,1.000000 138.605896,1.362299 
	C141.251587,2.504308 143.300354,3.507172 145.465088,4.028440 
	C162.884338,8.223000 178.521576,16.111816 192.057327,27.700420 
	C212.190201,44.937164 225.581589,66.438911 231.072174,92.603081 
	C231.259857,93.497520 232.337296,94.205246 233.000000,95.000000 
M118.066635,113.499985 
	C118.066635,126.602577 118.066635,139.705170 118.066635,152.770233 
	C121.467857,152.770233 124.237984,152.770233 127.729141,152.770233 
	C127.729141,135.931992 127.729141,119.320343 127.729141,101.257500 
	C139.031494,117.411095 149.629822,132.082077 159.648117,147.138992 
	C163.087997,152.308960 166.844269,154.291473 172.658859,152.558975 
	C172.658859,129.985245 172.658859,107.432724 172.658859,84.887207 
	C169.691223,84.887207 167.070419,84.887207 163.854858,84.887207 
	C163.854858,102.051445 163.854858,119.029770 163.854858,137.123260 
	C152.470291,120.835197 141.547470,105.763329 131.304764,90.242645 
	C127.864792,85.030075 124.114388,83.620422 118.066635,85.286942 
	C118.066635,94.258820 118.066635,103.379402 118.066635,113.499985 
M105.433624,99.923256 
	C104.644356,97.772552 104.151657,95.449341 103.017426,93.499290 
	C95.942986,81.336510 73.488304,79.226334 62.910217,89.639961 
	C52.400276,99.986496 57.104771,116.106026 72.139931,120.784508 
	C77.660355,122.502304 83.435760,123.404930 88.946480,125.148376 
	C93.598213,126.620049 97.228317,129.423370 97.143105,135.058441 
	C97.072647,139.717819 93.875038,143.299057 88.215889,145.023499 
	C77.890495,148.169876 70.094559,144.805542 64.183044,134.751099 
	C61.482632,134.751099 58.863422,134.751099 56.253822,134.751099 
	C56.135338,141.350800 59.029541,146.710922 64.728561,150.201218 
	C73.349899,155.481277 82.578300,155.851425 92.047188,153.087021 
	C101.573105,150.306015 106.899216,143.307648 106.984436,133.764908 
	C107.061752,125.107559 102.032936,118.983093 92.320999,116.089218 
	C89.472755,115.240524 86.505562,114.792053 83.654938,113.950073 
	C79.706116,112.783707 75.562576,111.905075 71.958786,110.027344 
	C66.251785,107.053764 65.364243,100.787819 69.414467,96.200394 
	C74.780479,90.122665 91.780090,89.459152 95.902695,100.056549 
	C97.345840,103.766243 103.130264,104.038689 105.433624,99.923256 
z"/>
<path fill="#000000" opacity="1.000000" stroke="none" 
	d="
M94.531342,1.000001 
	C93.256042,1.958949 91.617195,3.380576 89.751663,3.804404 
	C73.292679,7.543690 58.512493,14.696741 45.286457,25.139208 
	C23.383856,42.432163 9.265759,64.644630 3.024516,91.861137 
	C2.786595,92.898659 2.173186,93.850067 1.367374,94.920807 
	C1.000000,63.739742 1.000000,32.479485 1.000000,1.000000 
	C32.020550,1.000000 63.041618,1.000000 94.531342,1.000001 
z"/>
<path fill="#000000" opacity="1.000000" stroke="none" 
	d="
M233.000000,94.531342 
	C232.337296,94.205246 231.259857,93.497520 231.072174,92.603081 
	C225.581589,66.438911 212.190201,44.937164 192.057327,27.700420 
	C178.521576,16.111816 162.884338,8.223000 145.465088,4.028440 
	C143.300354,3.507172 141.251587,2.504308 139.074554,1.362299 
	C170.260254,1.000000 201.520508,1.000000 233.000000,1.000000 
	C233.000000,32.020550 233.000000,63.041618 233.000000,94.531342 
z"/>
<path fill="#000000" opacity="1.000000" stroke="none" 
	d="
M1.000001,138.468658 
	C1.662715,138.794754 2.740132,139.502472 2.927829,140.396896 
	C8.418360,166.561157 21.809938,188.062805 41.942734,205.299652 
	C55.478428,216.888336 71.115677,224.777023 88.534912,228.971573 
	C90.699646,229.492828 92.748421,230.495697 94.925461,231.637695 
	C63.739746,232.000000 32.479488,232.000000 1.000000,232.000000 
	C1.000000,200.979446 1.000000,169.958389 1.000001,138.468658 
z"/>
<path fill="#000000" opacity="1.000000" stroke="none" 
	d="
M139.468658,232.000000 
	C140.743958,231.041046 142.382797,229.619431 144.248352,229.195587 
	C160.707306,225.456238 175.487518,218.303268 188.713577,207.860748 
	C210.616089,190.567749 224.734497,168.355515 230.975510,141.138885 
	C231.213425,140.101379 231.826828,139.149948 232.632629,138.079193 
	C233.000000,169.260254 233.000000,200.520508 233.000000,232.000000 
	C201.979446,232.000000 170.958389,232.000000 139.468658,232.000000 
z"/>
<path fill="#FCFCFC" opacity="1.000000" stroke="none" 
	d="
M118.066635,112.999985 
	C118.066635,103.379402 118.066635,94.258820 118.066635,85.286942 
	C124.114388,83.620422 127.864792,85.030075 131.304764,90.242645 
	C141.547470,105.763329 152.470291,120.835197 163.854858,137.123260 
	C163.854858,119.029770 163.854858,102.051445 163.854858,84.887207 
	C167.070419,84.887207 169.691223,84.887207 172.658859,84.887207 
	C172.658859,107.432724 172.658859,129.985245 172.658859,152.558975 
	C166.844269,154.291473 163.087997,152.308960 159.648117,147.138992 
	C149.629822,132.082077 139.031494,117.411095 127.729141,101.257500 
	C127.729141,119.320343 127.729141,135.931992 127.729141,152.770233 
	C124.237984,152.770233 121.467857,152.770233 118.066635,152.770233 
	C118.066635,139.705170 118.066635,126.602577 118.066635,112.999985 
z"/>
<path fill="#F9F9F9" opacity="1.000000" stroke="none" 
	d="
M105.573662,100.297409 
	C103.130264,104.038689 97.345840,103.766243 95.902695,100.056549 
	C91.780090,89.459152 74.780479,90.122665 69.414467,96.200394 
	C65.364243,100.787819 66.251785,107.053764 71.958786,110.027344 
	C75.562576,111.905075 79.706116,112.783707 83.654938,113.950073 
	C86.505562,114.792053 89.472755,115.240524 92.320999,116.089218 
	C102.032936,118.983093 107.061752,125.107559 106.984436,133.764908 
	C106.899216,143.307648 101.573105,150.306015 92.047188,153.087021 
	C82.578300,155.851425 73.349899,155.481277 64.728561,150.201218 
	C59.029541,146.710922 56.135338,141.350800 56.253822,134.751099 
	C58.863422,134.751099 61.482632,134.751099 64.183044,134.751099 
	C70.094559,144.805542 77.890495,148.169876 88.215889,145.023499 
	C93.875038,143.299057 97.072647,139.717819 97.143105,135.058441 
	C97.228317,129.423370 93.598213,126.620049 88.946480,125.148376 
	C83.435760,123.404930 77.660355,122.502304 72.139931,120.784508 
	C57.104771,116.106026 52.400276,99.986496 62.910217,89.639961 
	C73.488304,79.226334 95.942986,81.336510 103.017426,93.499290 
	C104.151657,95.449341 104.644356,97.772552 105.573662,100.297409 
z"/>
</svg>